<?xml version="1.0" encoding="utf-8"?><svg width="auto" height="6020" style="overflow:visible " version="1.1" xmlns="http://www.w3.org/2000/svg"><rect x="20" y="20" width="200" height="40" style="fill:white;stroke:black;stroke-width:1" /><text x="30" y="30" font-size="10" style="fill:blue">xs:schema</text><text x="30" y="40" font-size="8" style="fill:black">elementFormDefault: qualified</text><text x="30" y="50" font-size="8" style="fill:black">xmlns: http://www.uniovi.es</text><text x="30" y="60" font-size="8" style="fill:black">targetNamespace: http://www.uniovi.es</text><text x="30" y="70" font-size="8" style="fill:black">xmlns:xs: http://www.w3.org/2001/XMLSchema</text><rect x="240" y="20" width="200" height="40" style="fill:white;stroke:black;stroke-width:1" /><text x="250" y="30" font-size="10" style="fill:blue">xs:element</text><path d="M220 40 C240 40 220 40 240 40" style="fill:transparent;stroke:black" /><text x="250" y="40" font-size="8" style="fill:black">name: circuito</text><rect x="460" y="20" width="200" height="40" style="fill:white;stroke:black;stroke-width:1" /><text x="470" y="30" font-size="10" style="fill:blue">xs:complexType</text><path d="M440 40 C460 40 440 40 460 40" style="fill:transparent;stroke:black" /><rect x="680" y="20" width="200" height="40" style="fill:white;stroke:black;stroke-width:1" /><text x="690" y="30" font-size="10" style="fill:blue">xs:sequence</text><path d="M660 40 C680 40 660 40 680 40" style="fill:transparent;stroke:black" /><rect x="900" y="20" width="200" height="40" style="fill:white;stroke:black;stroke-width:1" /><text x="910" y="30" font-size="10" style="fill:blue">xs:element</text><path d="M880 40 C900 40 880 40 900 40" style="fill:transparent;stroke:black" /><text x="910" y="40" font-size="8" style="fill:black">ref: nombre</text><rect x="900" y="70" width="200" height="40" style="fill:white;stroke:black;stroke-width:1" /><text x="910" y="80" font-size="10" style="fill:blue">xs:element</text><path d="M880 40 C900 40 880 90 900 90" style="fill:transparent;stroke:black" /><text x="910" y="90" font-size="8" style="fill:black">ref: longitud-circuito</text><rect x="900" y="120" width="200" height="40" style="fill:white;stroke:black;stroke-width:1" /><text x="910" y="130" font-size="10" style="fill:blue">xs:element</text><path d="M880 40 C900 40 880 140 900 140" style="fill:transparent;stroke:black" /><text x="910" y="140" font-size="8" style="fill:black">ref: anchura-media</text><rect x="900" y="170" width="200" height="40" style="fill:white;stroke:black;stroke-width:1" /><text x="910" y="180" font-size="10" style="fill:blue">xs:element</text><path d="M880 40 C900 40 880 190 900 190" style="fill:transparent;stroke:black" /><text x="910" y="190" font-size="8" style="fill:black">ref: fecha</text><rect x="900" y="220" width="200" height="40" style="fill:white;stroke:black;stroke-width:1" /><text x="910" y="230" font-size="10" style="fill:blue">xs:element</text><path d="M880 40 C900 40 880 240 900 240" style="fill:transparent;stroke:black" /><text x="910" y="240" font-size="8" style="fill:black">ref: hora</text><rect x="900" y="270" width="200" height="40" style="fill:white;stroke:black;stroke-width:1" /><text x="910" y="280" font-size="10" style="fill:blue">xs:element</text><path d="M880 40 C900 40 880 290 900 290" style="fill:transparent;stroke:black" /><text x="910" y="290" font-size="8" style="fill:black">ref: vueltas</text><rect x="900" y="320" width="200" height="40" style="fill:white;stroke:black;stroke-width:1" /><text x="910" y="330" font-size="10" style="fill:blue">xs:element</text><path d="M880 40 C900 40 880 340 900 340" style="fill:transparent;stroke:black" /><text x="910" y="340" font-size="8" style="fill:black">ref: localidad</text><rect x="900" y="370" width="200" height="40" style="fill:white;stroke:black;stroke-width:1" /><text x="910" y="380" font-size="10" style="fill:blue">xs:element</text><path d="M880 40 C900 40 880 390 900 390" style="fill:transparent;stroke:black" /><text x="910" y="390" font-size="8" style="fill:black">ref: pais</text><rect x="900" y="420" width="200" height="40" style="fill:white;stroke:black;stroke-width:1" /><text x="910" y="430" font-size="10" style="fill:blue">xs:element</text><path d="M880 40 C900 40 880 440 900 440" style="fill:transparent;stroke:black" /><text x="910" y="440" font-size="8" style="fill:black">ref: patrocinador</text><rect x="900" y="470" width="200" height="40" style="fill:white;stroke:black;stroke-width:1" /><text x="910" y="480" font-size="10" style="fill:blue">xs:element</text><path d="M880 40 C900 40 880 490 900 490" style="fill:transparent;stroke:black" /><text x="910" y="490" font-size="8" style="fill:black">ref: referencias</text><rect x="900" y="520" width="200" height="40" style="fill:white;stroke:black;stroke-width:1" /><text x="910" y="530" font-size="10" style="fill:blue">xs:element</text><path d="M880 40 C900 40 880 540 900 540" style="fill:transparent;stroke:black" /><text x="910" y="540" font-size="8" style="fill:black">ref: fotografias</text><rect x="900" y="570" width="200" height="40" style="fill:white;stroke:black;stroke-width:1" /><text x="910" y="580" font-size="10" style="fill:blue">xs:element</text><path d="M880 40 C900 40 880 590 900 590" style="fill:transparent;stroke:black" /><text x="910" y="590" font-size="8" style="fill:black">ref: videos</text><rect x="900" y="620" width="200" height="40" style="fill:white;stroke:black;stroke-width:1" /><text x="910" y="630" font-size="10" style="fill:blue">xs:element</text><path d="M880 40 C900 40 880 640 900 640" style="fill:transparent;stroke:black" /><text x="910" y="640" font-size="8" style="fill:black">ref: origen</text><rect x="900" y="670" width="200" height="40" style="fill:white;stroke:black;stroke-width:1" /><text x="910" y="680" font-size="10" style="fill:blue">xs:element</text><path d="M880 40 C900 40 880 690 900 690" style="fill:transparent;stroke:black" /><text x="910" y="690" font-size="8" style="fill:black">ref: puntos</text><rect x="900" y="720" width="200" height="40" style="fill:white;stroke:black;stroke-width:1" /><text x="910" y="730" font-size="10" style="fill:blue">xs:element</text><path d="M880 40 C900 40 880 740 900 740" style="fill:transparent;stroke:black" /><text x="910" y="740" font-size="8" style="fill:black">ref: vencedor</text><rect x="900" y="770" width="200" height="40" style="fill:white;stroke:black;stroke-width:1" /><text x="910" y="780" font-size="10" style="fill:blue">xs:element</text><path d="M880 40 C900 40 880 790 900 790" style="fill:transparent;stroke:black" /><text x="910" y="790" font-size="8" style="fill:black">ref: clasificados</text><rect x="240" y="970" width="200" height="40" style="fill:white;stroke:black;stroke-width:1" /><text x="250" y="980" font-size="10" style="fill:blue">xs:element</text><path d="M220 40 C240 40 220 990 240 990" style="fill:transparent;stroke:black" /><text x="250" y="990" font-size="8" style="fill:black">name: nombre</text><text x="250" y="1000" font-size="8" style="fill:black">type: xs:string</text><rect x="240" y="1020" width="200" height="40" style="fill:white;stroke:black;stroke-width:1" /><text x="250" y="1030" font-size="10" style="fill:blue">xs:simpleType</text><path d="M220 40 C240 40 220 1040 240 1040" style="fill:transparent;stroke:black" /><text x="250" y="1040" font-size="8" style="fill:black">name: longitudPositiva</text><rect x="460" y="1020" width="200" height="40" style="fill:white;stroke:black;stroke-width:1" /><text x="470" y="1030" font-size="10" style="fill:blue">xs:restriction</text><path d="M440 1040 C460 1040 440 1040 460 1040" style="fill:transparent;stroke:black" /><text x="470" y="1040" font-size="8" style="fill:black">base: xs:decimal</text><rect x="680" y="1020" width="200" height="40" style="fill:white;stroke:black;stroke-width:1" /><text x="690" y="1030" font-size="10" style="fill:blue">xs:minExclusive</text><path d="M660 1040 C680 1040 660 1040 680 1040" style="fill:transparent;stroke:black" /><text x="690" y="1040" font-size="8" style="fill:black">value: 0</text><rect x="240" y="1170" width="200" height="40" style="fill:white;stroke:black;stroke-width:1" /><text x="250" y="1180" font-size="10" style="fill:blue">xs:complexType</text><path d="M220 40 C240 40 220 1190 240 1190" style="fill:transparent;stroke:black" /><text x="250" y="1190" font-size="8" style="fill:black">name: tipoLongitudCircuito</text><rect x="460" y="1170" width="200" height="40" style="fill:white;stroke:black;stroke-width:1" /><text x="470" y="1180" font-size="10" style="fill:blue">xs:simpleContent</text><path d="M440 1190 C460 1190 440 1190 460 1190" style="fill:transparent;stroke:black" /><rect x="680" y="1170" width="200" height="40" style="fill:white;stroke:black;stroke-width:1" /><text x="690" y="1180" font-size="10" style="fill:blue">xs:extension</text><path d="M660 1190 C680 1190 660 1190 680 1190" style="fill:transparent;stroke:black" /><text x="690" y="1190" font-size="8" style="fill:black">base: longitudPositiva</text><rect x="900" y="1170" width="200" height="40" style="fill:white;stroke:black;stroke-width:1" /><text x="910" y="1180" font-size="10" style="fill:blue">xs:attribute</text><path d="M880 1190 C900 1190 880 1190 900 1190" style="fill:transparent;stroke:black" /><text x="910" y="1190" font-size="8" style="fill:black">name: unidades</text><text x="910" y="1200" font-size="8" style="fill:black">type: xs:string</text><text x="910" y="1210" font-size="8" style="fill:black">use: required</text><rect x="240" y="1370" width="200" height="40" style="fill:white;stroke:black;stroke-width:1" /><text x="250" y="1380" font-size="10" style="fill:blue">xs:complexType</text><path d="M220 40 C240 40 220 1390 240 1390" style="fill:transparent;stroke:black" /><text x="250" y="1390" font-size="8" style="fill:black">name: tipoAnchuraMedia</text><rect x="460" y="1370" width="200" height="40" style="fill:white;stroke:black;stroke-width:1" /><text x="470" y="1380" font-size="10" style="fill:blue">xs:simpleContent</text><path d="M440 1390 C460 1390 440 1390 460 1390" style="fill:transparent;stroke:black" /><rect x="680" y="1370" width="200" height="40" style="fill:white;stroke:black;stroke-width:1" /><text x="690" y="1380" font-size="10" style="fill:blue">xs:extension</text><path d="M660 1390 C680 1390 660 1390 680 1390" style="fill:transparent;stroke:black" /><text x="690" y="1390" font-size="8" style="fill:black">base: longitudPositiva</text><rect x="900" y="1370" width="200" height="40" style="fill:white;stroke:black;stroke-width:1" /><text x="910" y="1380" font-size="10" style="fill:blue">xs:attribute</text><path d="M880 1390 C900 1390 880 1390 900 1390" style="fill:transparent;stroke:black" /><text x="910" y="1390" font-size="8" style="fill:black">name: unidades</text><text x="910" y="1400" font-size="8" style="fill:black">type: xs:string</text><text x="910" y="1410" font-size="8" style="fill:black">use: required</text><rect x="240" y="1570" width="200" height="40" style="fill:white;stroke:black;stroke-width:1" /><text x="250" y="1580" font-size="10" style="fill:blue">xs:element</text><path d="M220 40 C240 40 220 1590 240 1590" style="fill:transparent;stroke:black" /><text x="250" y="1590" font-size="8" style="fill:black">name: longitud-circuito</text><text x="250" y="1600" font-size="8" style="fill:black">type: tipoLongitudCircuito</text><rect x="240" y="1620" width="200" height="40" style="fill:white;stroke:black;stroke-width:1" /><text x="250" y="1630" font-size="10" style="fill:blue">xs:element</text><path d="M220 40 C240 40 220 1640 240 1640" style="fill:transparent;stroke:black" /><text x="250" y="1640" font-size="8" style="fill:black">name: anchura-media</text><text x="250" y="1650" font-size="8" style="fill:black">type: tipoAnchuraMedia</text><rect x="240" y="1670" width="200" height="40" style="fill:white;stroke:black;stroke-width:1" /><text x="250" y="1680" font-size="10" style="fill:blue">xs:element</text><path d="M220 40 C240 40 220 1690 240 1690" style="fill:transparent;stroke:black" /><text x="250" y="1690" font-size="8" style="fill:black">name: fecha</text><text x="250" y="1700" font-size="8" style="fill:black">type: xs:date</text><rect x="240" y="1720" width="200" height="40" style="fill:white;stroke:black;stroke-width:1" /><text x="250" y="1730" font-size="10" style="fill:blue">xs:element</text><path d="M220 40 C240 40 220 1740 240 1740" style="fill:transparent;stroke:black" /><text x="250" y="1740" font-size="8" style="fill:black">name: hora</text><text x="250" y="1750" font-size="8" style="fill:black">type: xs:time</text><rect x="240" y="1770" width="200" height="40" style="fill:white;stroke:black;stroke-width:1" /><text x="250" y="1780" font-size="10" style="fill:blue">xs:element</text><path d="M220 40 C240 40 220 1790 240 1790" style="fill:transparent;stroke:black" /><text x="250" y="1790" font-size="8" style="fill:black">name: vueltas</text><text x="250" y="1800" font-size="8" style="fill:black">type: xs:positiveInteger</text><rect x="240" y="1820" width="200" height="40" style="fill:white;stroke:black;stroke-width:1" /><text x="250" y="1830" font-size="10" style="fill:blue">xs:element</text><path d="M220 40 C240 40 220 1840 240 1840" style="fill:transparent;stroke:black" /><text x="250" y="1840" font-size="8" style="fill:black">name: localidad</text><text x="250" y="1850" font-size="8" style="fill:black">type: xs:string</text><rect x="240" y="1870" width="200" height="40" style="fill:white;stroke:black;stroke-width:1" /><text x="250" y="1880" font-size="10" style="fill:blue">xs:element</text><path d="M220 40 C240 40 220 1890 240 1890" style="fill:transparent;stroke:black" /><text x="250" y="1890" font-size="8" style="fill:black">name: pais</text><text x="250" y="1900" font-size="8" style="fill:black">type: xs:string</text><rect x="240" y="1920" width="200" height="40" style="fill:white;stroke:black;stroke-width:1" /><text x="250" y="1930" font-size="10" style="fill:blue">xs:element</text><path d="M220 40 C240 40 220 1940 240 1940" style="fill:transparent;stroke:black" /><text x="250" y="1940" font-size="8" style="fill:black">name: patrocinador</text><text x="250" y="1950" font-size="8" style="fill:black">type: xs:string</text><rect x="240" y="1970" width="200" height="40" style="fill:white;stroke:black;stroke-width:1" /><text x="250" y="1980" font-size="10" style="fill:blue">xs:element</text><path d="M220 40 C240 40 220 1990 240 1990" style="fill:transparent;stroke:black" /><text x="250" y="1990" font-size="8" style="fill:black">name: referencias</text><rect x="460" y="1970" width="200" height="40" style="fill:white;stroke:black;stroke-width:1" /><text x="470" y="1980" font-size="10" style="fill:blue">xs:complexType</text><path d="M440 1990 C460 1990 440 1990 460 1990" style="fill:transparent;stroke:black" /><rect x="680" y="1970" width="200" height="40" style="fill:white;stroke:black;stroke-width:1" /><text x="690" y="1980" font-size="10" style="fill:blue">xs:sequence</text><path d="M660 1990 C680 1990 660 1990 680 1990" style="fill:transparent;stroke:black" /><rect x="900" y="1970" width="200" height="40" style="fill:white;stroke:black;stroke-width:1" /><text x="910" y="1980" font-size="10" style="fill:blue">xs:element</text><path d="M880 1990 C900 1990 880 1990 900 1990" style="fill:transparent;stroke:black" /><text x="910" y="1990" font-size="8" style="fill:black">minOccurs: 3</text><text x="910" y="2000" font-size="8" style="fill:black">maxOccurs: unbounded</text><text x="910" y="2010" font-size="8" style="fill:black">ref: referencia</text><rect x="240" y="2170" width="200" height="40" style="fill:white;stroke:black;stroke-width:1" /><text x="250" y="2180" font-size="10" style="fill:blue">xs:element</text><path d="M220 40 C240 40 220 2190 240 2190" style="fill:transparent;stroke:black" /><text x="250" y="2190" font-size="8" style="fill:black">name: referencia</text><text x="250" y="2200" font-size="8" style="fill:black">type: xs:string</text><rect x="240" y="2220" width="200" height="40" style="fill:white;stroke:black;stroke-width:1" /><text x="250" y="2230" font-size="10" style="fill:blue">xs:element</text><path d="M220 40 C240 40 220 2240 240 2240" style="fill:transparent;stroke:black" /><text x="250" y="2240" font-size="8" style="fill:black">name: fotografias</text><rect x="460" y="2220" width="200" height="40" style="fill:white;stroke:black;stroke-width:1" /><text x="470" y="2230" font-size="10" style="fill:blue">xs:complexType</text><path d="M440 2240 C460 2240 440 2240 460 2240" style="fill:transparent;stroke:black" /><rect x="680" y="2220" width="200" height="40" style="fill:white;stroke:black;stroke-width:1" /><text x="690" y="2230" font-size="10" style="fill:blue">xs:sequence</text><path d="M660 2240 C680 2240 660 2240 680 2240" style="fill:transparent;stroke:black" /><rect x="900" y="2220" width="200" height="40" style="fill:white;stroke:black;stroke-width:1" /><text x="910" y="2230" font-size="10" style="fill:blue">xs:element</text><path d="M880 2240 C900 2240 880 2240 900 2240" style="fill:transparent;stroke:black" /><text x="910" y="2240" font-size="8" style="fill:black">minOccurs: 1</text><text x="910" y="2250" font-size="8" style="fill:black">maxOccurs: 5</text><text x="910" y="2260" font-size="8" style="fill:black">ref: fotografia</text><rect x="240" y="2420" width="200" height="40" style="fill:white;stroke:black;stroke-width:1" /><text x="250" y="2430" font-size="10" style="fill:blue">xs:element</text><path d="M220 40 C240 40 220 2440 240 2440" style="fill:transparent;stroke:black" /><text x="250" y="2440" font-size="8" style="fill:black">name: fotografia</text><text x="250" y="2450" font-size="8" style="fill:black">type: xs:string</text><rect x="240" y="2470" width="200" height="40" style="fill:white;stroke:black;stroke-width:1" /><text x="250" y="2480" font-size="10" style="fill:blue">xs:element</text><path d="M220 40 C240 40 220 2490 240 2490" style="fill:transparent;stroke:black" /><text x="250" y="2490" font-size="8" style="fill:black">name: videos</text><rect x="460" y="2470" width="200" height="40" style="fill:white;stroke:black;stroke-width:1" /><text x="470" y="2480" font-size="10" style="fill:blue">xs:complexType</text><path d="M440 2490 C460 2490 440 2490 460 2490" style="fill:transparent;stroke:black" /><rect x="680" y="2470" width="200" height="40" style="fill:white;stroke:black;stroke-width:1" /><text x="690" y="2480" font-size="10" style="fill:blue">xs:sequence</text><path d="M660 2490 C680 2490 660 2490 680 2490" style="fill:transparent;stroke:black" /><rect x="900" y="2470" width="200" height="40" style="fill:white;stroke:black;stroke-width:1" /><text x="910" y="2480" font-size="10" style="fill:blue">xs:element</text><path d="M880 2490 C900 2490 880 2490 900 2490" style="fill:transparent;stroke:black" /><text x="910" y="2490" font-size="8" style="fill:black">minOccurs: 1</text><text x="910" y="2500" font-size="8" style="fill:black">maxOccurs: 3</text><text x="910" y="2510" font-size="8" style="fill:black">ref: video</text><rect x="240" y="2670" width="200" height="40" style="fill:white;stroke:black;stroke-width:1" /><text x="250" y="2680" font-size="10" style="fill:blue">xs:element</text><path d="M220 40 C240 40 220 2690 240 2690" style="fill:transparent;stroke:black" /><text x="250" y="2690" font-size="8" style="fill:black">name: video</text><text x="250" y="2700" font-size="8" style="fill:black">type: xs:string</text><rect x="240" y="2720" width="200" height="40" style="fill:white;stroke:black;stroke-width:1" /><text x="250" y="2730" font-size="10" style="fill:blue">xs:element</text><path d="M220 40 C240 40 220 2740 240 2740" style="fill:transparent;stroke:black" /><text x="250" y="2740" font-size="8" style="fill:black">name: origen</text><rect x="460" y="2720" width="200" height="40" style="fill:white;stroke:black;stroke-width:1" /><text x="470" y="2730" font-size="10" style="fill:blue">xs:complexType</text><path d="M440 2740 C460 2740 440 2740 460 2740" style="fill:transparent;stroke:black" /><rect x="680" y="2720" width="200" height="40" style="fill:white;stroke:black;stroke-width:1" /><text x="690" y="2730" font-size="10" style="fill:blue">xs:sequence</text><path d="M660 2740 C680 2740 660 2740 680 2740" style="fill:transparent;stroke:black" /><rect x="900" y="2720" width="200" height="40" style="fill:white;stroke:black;stroke-width:1" /><text x="910" y="2730" font-size="10" style="fill:blue">xs:element</text><path d="M880 2740 C900 2740 880 2740 900 2740" style="fill:transparent;stroke:black" /><text x="910" y="2740" font-size="8" style="fill:black">ref: coordenadas</text><rect x="240" y="2920" width="200" height="40" style="fill:white;stroke:black;stroke-width:1" /><text x="250" y="2930" font-size="10" style="fill:blue">xs:element</text><path d="M220 40 C240 40 220 2940 240 2940" style="fill:transparent;stroke:black" /><text x="250" y="2940" font-size="8" style="fill:black">name: puntos</text><rect x="460" y="2920" width="200" height="40" style="fill:white;stroke:black;stroke-width:1" /><text x="470" y="2930" font-size="10" style="fill:blue">xs:complexType</text><path d="M440 2940 C460 2940 440 2940 460 2940" style="fill:transparent;stroke:black" /><rect x="680" y="2920" width="200" height="40" style="fill:white;stroke:black;stroke-width:1" /><text x="690" y="2930" font-size="10" style="fill:blue">xs:sequence</text><path d="M660 2940 C680 2940 660 2940 680 2940" style="fill:transparent;stroke:black" /><rect x="900" y="2920" width="200" height="40" style="fill:white;stroke:black;stroke-width:1" /><text x="910" y="2930" font-size="10" style="fill:blue">xs:element</text><path d="M880 2940 C900 2940 880 2940 900 2940" style="fill:transparent;stroke:black" /><text x="910" y="2940" font-size="8" style="fill:black">minOccurs: 1</text><text x="910" y="2950" font-size="8" style="fill:black">maxOccurs: unbounded</text><text x="910" y="2960" font-size="8" style="fill:black">ref: punto</text><rect x="240" y="3120" width="200" height="40" style="fill:white;stroke:black;stroke-width:1" /><text x="250" y="3130" font-size="10" style="fill:blue">xs:element</text><path d="M220 40 C240 40 220 3140 240 3140" style="fill:transparent;stroke:black" /><text x="250" y="3140" font-size="8" style="fill:black">name: punto</text><rect x="460" y="3120" width="200" height="40" style="fill:white;stroke:black;stroke-width:1" /><text x="470" y="3130" font-size="10" style="fill:blue">xs:complexType</text><path d="M440 3140 C460 3140 440 3140 460 3140" style="fill:transparent;stroke:black" /><rect x="680" y="3120" width="200" height="40" style="fill:white;stroke:black;stroke-width:1" /><text x="690" y="3130" font-size="10" style="fill:blue">xs:sequence</text><path d="M660 3140 C680 3140 660 3140 680 3140" style="fill:transparent;stroke:black" /><rect x="900" y="3120" width="200" height="40" style="fill:white;stroke:black;stroke-width:1" /><text x="910" y="3130" font-size="10" style="fill:blue">xs:element</text><path d="M880 3140 C900 3140 880 3140 900 3140" style="fill:transparent;stroke:black" /><text x="910" y="3140" font-size="8" style="fill:black">ref: distancia</text><rect x="900" y="3170" width="200" height="40" style="fill:white;stroke:black;stroke-width:1" /><text x="910" y="3180" font-size="10" style="fill:blue">xs:element</text><path d="M880 3140 C900 3140 880 3190 900 3190" style="fill:transparent;stroke:black" /><text x="910" y="3190" font-size="8" style="fill:black">ref: coordenadas</text><rect x="900" y="3220" width="200" height="40" style="fill:white;stroke:black;stroke-width:1" /><text x="910" y="3230" font-size="10" style="fill:blue">xs:element</text><path d="M880 3140 C900 3140 880 3240 900 3240" style="fill:transparent;stroke:black" /><text x="910" y="3240" font-size="8" style="fill:black">ref: sector</text><rect x="240" y="3420" width="200" height="40" style="fill:white;stroke:black;stroke-width:1" /><text x="250" y="3430" font-size="10" style="fill:blue">xs:element</text><path d="M220 40 C240 40 220 3440 240 3440" style="fill:transparent;stroke:black" /><text x="250" y="3440" font-size="8" style="fill:black">name: distancia</text><rect x="460" y="3420" width="200" height="40" style="fill:white;stroke:black;stroke-width:1" /><text x="470" y="3430" font-size="10" style="fill:blue">xs:complexType</text><path d="M440 3440 C460 3440 440 3440 460 3440" style="fill:transparent;stroke:black" /><rect x="680" y="3420" width="200" height="40" style="fill:white;stroke:black;stroke-width:1" /><text x="690" y="3430" font-size="10" style="fill:blue">xs:simpleContent</text><path d="M660 3440 C680 3440 660 3440 680 3440" style="fill:transparent;stroke:black" /><rect x="900" y="3420" width="200" height="40" style="fill:white;stroke:black;stroke-width:1" /><text x="910" y="3430" font-size="10" style="fill:blue">xs:extension</text><path d="M880 3440 C900 3440 880 3440 900 3440" style="fill:transparent;stroke:black" /><text x="910" y="3440" font-size="8" style="fill:black">base: xs:decimal</text><rect x="1120" y="3420" width="200" height="40" style="fill:white;stroke:black;stroke-width:1" /><text x="1130" y="3430" font-size="10" style="fill:blue">xs:attribute</text><path d="M1100 3440 C1120 3440 1100 3440 1120 3440" style="fill:transparent;stroke:black" /><text x="1130" y="3440" font-size="8" style="fill:black">name: unidades</text><text x="1130" y="3450" font-size="8" style="fill:black">type: xs:string</text><text x="1130" y="3460" font-size="8" style="fill:black">use: required</text><rect x="240" y="3670" width="200" height="40" style="fill:white;stroke:black;stroke-width:1" /><text x="250" y="3680" font-size="10" style="fill:blue">xs:element</text><path d="M220 40 C240 40 220 3690 240 3690" style="fill:transparent;stroke:black" /><text x="250" y="3690" font-size="8" style="fill:black">name: sector</text><text x="250" y="3700" font-size="8" style="fill:black">type: xs:positiveInteger</text><rect x="240" y="3720" width="200" height="40" style="fill:white;stroke:black;stroke-width:1" /><text x="250" y="3730" font-size="10" style="fill:blue">xs:simpleType</text><path d="M220 40 C240 40 220 3740 240 3740" style="fill:transparent;stroke:black" /><text x="250" y="3740" font-size="8" style="fill:black">name: longitudDecimal</text><rect x="460" y="3720" width="200" height="40" style="fill:white;stroke:black;stroke-width:1" /><text x="470" y="3730" font-size="10" style="fill:blue">xs:restriction</text><path d="M440 3740 C460 3740 440 3740 460 3740" style="fill:transparent;stroke:black" /><text x="470" y="3740" font-size="8" style="fill:black">base: xs:decimal</text><rect x="680" y="3720" width="200" height="40" style="fill:white;stroke:black;stroke-width:1" /><text x="690" y="3730" font-size="10" style="fill:blue">xs:minInclusive</text><path d="M660 3740 C680 3740 660 3740 680 3740" style="fill:transparent;stroke:black" /><text x="690" y="3740" font-size="8" style="fill:black">value: -180</text><rect x="680" y="3770" width="200" height="40" style="fill:white;stroke:black;stroke-width:1" /><text x="690" y="3780" font-size="10" style="fill:blue">xs:maxInclusive</text><path d="M660 3740 C680 3740 660 3790 680 3790" style="fill:transparent;stroke:black" /><text x="690" y="3790" font-size="8" style="fill:black">value: 180</text><rect x="240" y="3920" width="200" height="40" style="fill:white;stroke:black;stroke-width:1" /><text x="250" y="3930" font-size="10" style="fill:blue">xs:simpleType</text><path d="M220 40 C240 40 220 3940 240 3940" style="fill:transparent;stroke:black" /><text x="250" y="3940" font-size="8" style="fill:black">name: latitudDecimal</text><rect x="460" y="3920" width="200" height="40" style="fill:white;stroke:black;stroke-width:1" /><text x="470" y="3930" font-size="10" style="fill:blue">xs:restriction</text><path d="M440 3940 C460 3940 440 3940 460 3940" style="fill:transparent;stroke:black" /><text x="470" y="3940" font-size="8" style="fill:black">base: xs:decimal</text><rect x="680" y="3920" width="200" height="40" style="fill:white;stroke:black;stroke-width:1" /><text x="690" y="3930" font-size="10" style="fill:blue">xs:minInclusive</text><path d="M660 3940 C680 3940 660 3940 680 3940" style="fill:transparent;stroke:black" /><text x="690" y="3940" font-size="8" style="fill:black">value: -90</text><rect x="680" y="3970" width="200" height="40" style="fill:white;stroke:black;stroke-width:1" /><text x="690" y="3980" font-size="10" style="fill:blue">xs:maxInclusive</text><path d="M660 3940 C680 3940 660 3990 680 3990" style="fill:transparent;stroke:black" /><text x="690" y="3990" font-size="8" style="fill:black">value: 90</text><rect x="240" y="4120" width="200" height="40" style="fill:white;stroke:black;stroke-width:1" /><text x="250" y="4130" font-size="10" style="fill:blue">xs:complexType</text><path d="M220 40 C240 40 220 4140 240 4140" style="fill:transparent;stroke:black" /><text x="250" y="4140" font-size="8" style="fill:black">name: tipoLongitud</text><rect x="460" y="4120" width="200" height="40" style="fill:white;stroke:black;stroke-width:1" /><text x="470" y="4130" font-size="10" style="fill:blue">xs:simpleContent</text><path d="M440 4140 C460 4140 440 4140 460 4140" style="fill:transparent;stroke:black" /><rect x="680" y="4120" width="200" height="40" style="fill:white;stroke:black;stroke-width:1" /><text x="690" y="4130" font-size="10" style="fill:blue">xs:extension</text><path d="M660 4140 C680 4140 660 4140 680 4140" style="fill:transparent;stroke:black" /><text x="690" y="4140" font-size="8" style="fill:black">base: longitudDecimal</text><rect x="900" y="4120" width="200" height="40" style="fill:white;stroke:black;stroke-width:1" /><text x="910" y="4130" font-size="10" style="fill:blue">xs:attribute</text><path d="M880 4140 C900 4140 880 4140 900 4140" style="fill:transparent;stroke:black" /><text x="910" y="4140" font-size="8" style="fill:black">name: unidades</text><text x="910" y="4150" font-size="8" style="fill:black">type: xs:string</text><text x="910" y="4160" font-size="8" style="fill:black">use: required</text><rect x="240" y="4320" width="200" height="40" style="fill:white;stroke:black;stroke-width:1" /><text x="250" y="4330" font-size="10" style="fill:blue">xs:complexType</text><path d="M220 40 C240 40 220 4340 240 4340" style="fill:transparent;stroke:black" /><text x="250" y="4340" font-size="8" style="fill:black">name: tipoLatitud</text><rect x="460" y="4320" width="200" height="40" style="fill:white;stroke:black;stroke-width:1" /><text x="470" y="4330" font-size="10" style="fill:blue">xs:simpleContent</text><path d="M440 4340 C460 4340 440 4340 460 4340" style="fill:transparent;stroke:black" /><rect x="680" y="4320" width="200" height="40" style="fill:white;stroke:black;stroke-width:1" /><text x="690" y="4330" font-size="10" style="fill:blue">xs:extension</text><path d="M660 4340 C680 4340 660 4340 680 4340" style="fill:transparent;stroke:black" /><text x="690" y="4340" font-size="8" style="fill:black">base: latitudDecimal</text><rect x="900" y="4320" width="200" height="40" style="fill:white;stroke:black;stroke-width:1" /><text x="910" y="4330" font-size="10" style="fill:blue">xs:attribute</text><path d="M880 4340 C900 4340 880 4340 900 4340" style="fill:transparent;stroke:black" /><text x="910" y="4340" font-size="8" style="fill:black">name: unidades</text><text x="910" y="4350" font-size="8" style="fill:black">type: xs:string</text><text x="910" y="4360" font-size="8" style="fill:black">use: required</text><rect x="240" y="4520" width="200" height="40" style="fill:white;stroke:black;stroke-width:1" /><text x="250" y="4530" font-size="10" style="fill:blue">xs:complexType</text><path d="M220 40 C240 40 220 4540 240 4540" style="fill:transparent;stroke:black" /><text x="250" y="4540" font-size="8" style="fill:black">name: tipoAltitud</text><rect x="460" y="4520" width="200" height="40" style="fill:white;stroke:black;stroke-width:1" /><text x="470" y="4530" font-size="10" style="fill:blue">xs:simpleContent</text><path d="M440 4540 C460 4540 440 4540 460 4540" style="fill:transparent;stroke:black" /><rect x="680" y="4520" width="200" height="40" style="fill:white;stroke:black;stroke-width:1" /><text x="690" y="4530" font-size="10" style="fill:blue">xs:extension</text><path d="M660 4540 C680 4540 660 4540 680 4540" style="fill:transparent;stroke:black" /><text x="690" y="4540" font-size="8" style="fill:black">base: xs:decimal</text><rect x="900" y="4520" width="200" height="40" style="fill:white;stroke:black;stroke-width:1" /><text x="910" y="4530" font-size="10" style="fill:blue">xs:attribute</text><path d="M880 4540 C900 4540 880 4540 900 4540" style="fill:transparent;stroke:black" /><text x="910" y="4540" font-size="8" style="fill:black">name: unidades</text><text x="910" y="4550" font-size="8" style="fill:black">type: xs:string</text><text x="910" y="4560" font-size="8" style="fill:black">use: required</text><rect x="240" y="4720" width="200" height="40" style="fill:white;stroke:black;stroke-width:1" /><text x="250" y="4730" font-size="10" style="fill:blue">xs:element</text><path d="M220 40 C240 40 220 4740 240 4740" style="fill:transparent;stroke:black" /><text x="250" y="4740" font-size="8" style="fill:black">name: longitud</text><text x="250" y="4750" font-size="8" style="fill:black">type: tipoLongitud</text><rect x="240" y="4770" width="200" height="40" style="fill:white;stroke:black;stroke-width:1" /><text x="250" y="4780" font-size="10" style="fill:blue">xs:element</text><path d="M220 40 C240 40 220 4790 240 4790" style="fill:transparent;stroke:black" /><text x="250" y="4790" font-size="8" style="fill:black">name: latitud</text><text x="250" y="4800" font-size="8" style="fill:black">type: tipoLatitud</text><rect x="240" y="4820" width="200" height="40" style="fill:white;stroke:black;stroke-width:1" /><text x="250" y="4830" font-size="10" style="fill:blue">xs:element</text><path d="M220 40 C240 40 220 4840 240 4840" style="fill:transparent;stroke:black" /><text x="250" y="4840" font-size="8" style="fill:black">name: altitud</text><text x="250" y="4850" font-size="8" style="fill:black">type: tipoAltitud</text><rect x="240" y="4870" width="200" height="40" style="fill:white;stroke:black;stroke-width:1" /><text x="250" y="4880" font-size="10" style="fill:blue">xs:element</text><path d="M220 40 C240 40 220 4890 240 4890" style="fill:transparent;stroke:black" /><text x="250" y="4890" font-size="8" style="fill:black">name: coordenadas</text><rect x="460" y="4870" width="200" height="40" style="fill:white;stroke:black;stroke-width:1" /><text x="470" y="4880" font-size="10" style="fill:blue">xs:complexType</text><path d="M440 4890 C460 4890 440 4890 460 4890" style="fill:transparent;stroke:black" /><rect x="680" y="4870" width="200" height="40" style="fill:white;stroke:black;stroke-width:1" /><text x="690" y="4880" font-size="10" style="fill:blue">xs:sequence</text><path d="M660 4890 C680 4890 660 4890 680 4890" style="fill:transparent;stroke:black" /><rect x="900" y="4870" width="200" height="40" style="fill:white;stroke:black;stroke-width:1" /><text x="910" y="4880" font-size="10" style="fill:blue">xs:element</text><path d="M880 4890 C900 4890 880 4890 900 4890" style="fill:transparent;stroke:black" /><text x="910" y="4890" font-size="8" style="fill:black">ref: longitud</text><rect x="900" y="4920" width="200" height="40" style="fill:white;stroke:black;stroke-width:1" /><text x="910" y="4930" font-size="10" style="fill:blue">xs:element</text><path d="M880 4890 C900 4890 880 4940 900 4940" style="fill:transparent;stroke:black" /><text x="910" y="4940" font-size="8" style="fill:black">ref: latitud</text><rect x="900" y="4970" width="200" height="40" style="fill:white;stroke:black;stroke-width:1" /><text x="910" y="4980" font-size="10" style="fill:blue">xs:element</text><path d="M880 4890 C900 4890 880 4990 900 4990" style="fill:transparent;stroke:black" /><text x="910" y="4990" font-size="8" style="fill:black">ref: altitud</text><rect x="240" y="5170" width="200" height="40" style="fill:white;stroke:black;stroke-width:1" /><text x="250" y="5180" font-size="10" style="fill:blue">xs:element</text><path d="M220 40 C240 40 220 5190 240 5190" style="fill:transparent;stroke:black" /><text x="250" y="5190" font-size="8" style="fill:black">name: vencedor</text><rect x="460" y="5170" width="200" height="40" style="fill:white;stroke:black;stroke-width:1" /><text x="470" y="5180" font-size="10" style="fill:blue">xs:complexType</text><path d="M440 5190 C460 5190 440 5190 460 5190" style="fill:transparent;stroke:black" /><rect x="680" y="5170" width="200" height="40" style="fill:white;stroke:black;stroke-width:1" /><text x="690" y="5180" font-size="10" style="fill:blue">xs:simpleContent</text><path d="M660 5190 C680 5190 660 5190 680 5190" style="fill:transparent;stroke:black" /><rect x="900" y="5170" width="200" height="40" style="fill:white;stroke:black;stroke-width:1" /><text x="910" y="5180" font-size="10" style="fill:blue">xs:extension</text><path d="M880 5190 C900 5190 880 5190 900 5190" style="fill:transparent;stroke:black" /><text x="910" y="5190" font-size="8" style="fill:black">base: xs:string</text><rect x="1120" y="5170" width="200" height="40" style="fill:white;stroke:black;stroke-width:1" /><text x="1130" y="5180" font-size="10" style="fill:blue">xs:attribute</text><path d="M1100 5190 C1120 5190 1100 5190 1120 5190" style="fill:transparent;stroke:black" /><text x="1130" y="5190" font-size="8" style="fill:black">name: tiempo</text><text x="1130" y="5200" font-size="8" style="fill:black">type: xs:duration</text><text x="1130" y="5210" font-size="8" style="fill:black">use: required</text><rect x="240" y="5420" width="200" height="40" style="fill:white;stroke:black;stroke-width:1" /><text x="250" y="5430" font-size="10" style="fill:blue">xs:element</text><path d="M220 40 C240 40 220 5440 240 5440" style="fill:transparent;stroke:black" /><text x="250" y="5440" font-size="8" style="fill:black">name: clasificados</text><rect x="460" y="5420" width="200" height="40" style="fill:white;stroke:black;stroke-width:1" /><text x="470" y="5430" font-size="10" style="fill:blue">xs:complexType</text><path d="M440 5440 C460 5440 440 5440 460 5440" style="fill:transparent;stroke:black" /><rect x="680" y="5420" width="200" height="40" style="fill:white;stroke:black;stroke-width:1" /><text x="690" y="5430" font-size="10" style="fill:blue">xs:sequence</text><path d="M660 5440 C680 5440 660 5440 680 5440" style="fill:transparent;stroke:black" /><rect x="900" y="5420" width="200" height="40" style="fill:white;stroke:black;stroke-width:1" /><text x="910" y="5430" font-size="10" style="fill:blue">xs:element</text><path d="M880 5440 C900 5440 880 5440 900 5440" style="fill:transparent;stroke:black" /><text x="910" y="5440" font-size="8" style="fill:black">ref: clasificado</text><rect x="900" y="5470" width="200" height="40" style="fill:white;stroke:black;stroke-width:1" /><text x="910" y="5480" font-size="10" style="fill:blue">xs:element</text><path d="M880 5440 C900 5440 880 5490 900 5490" style="fill:transparent;stroke:black" /><text x="910" y="5490" font-size="8" style="fill:black">ref: clasificado</text><rect x="900" y="5520" width="200" height="40" style="fill:white;stroke:black;stroke-width:1" /><text x="910" y="5530" font-size="10" style="fill:blue">xs:element</text><path d="M880 5440 C900 5440 880 5540 900 5540" style="fill:transparent;stroke:black" /><text x="910" y="5540" font-size="8" style="fill:black">ref: clasificado</text><rect x="240" y="5720" width="200" height="40" style="fill:white;stroke:black;stroke-width:1" /><text x="250" y="5730" font-size="10" style="fill:blue">xs:element</text><path d="M220 40 C240 40 220 5740 240 5740" style="fill:transparent;stroke:black" /><text x="250" y="5740" font-size="8" style="fill:black">name: clasificado</text><rect x="460" y="5720" width="200" height="40" style="fill:white;stroke:black;stroke-width:1" /><text x="470" y="5730" font-size="10" style="fill:blue">xs:complexType</text><path d="M440 5740 C460 5740 440 5740 460 5740" style="fill:transparent;stroke:black" /><rect x="680" y="5720" width="200" height="40" style="fill:white;stroke:black;stroke-width:1" /><text x="690" y="5730" font-size="10" style="fill:blue">xs:simpleContent</text><path d="M660 5740 C680 5740 660 5740 680 5740" style="fill:transparent;stroke:black" /><rect x="900" y="5720" width="200" height="40" style="fill:white;stroke:black;stroke-width:1" /><text x="910" y="5730" font-size="10" style="fill:blue">xs:extension</text><path d="M880 5740 C900 5740 880 5740 900 5740" style="fill:transparent;stroke:black" /><text x="910" y="5740" font-size="8" style="fill:black">base: xs:string</text><rect x="1120" y="5720" width="200" height="40" style="fill:white;stroke:black;stroke-width:1" /><text x="1130" y="5730" font-size="10" style="fill:blue">xs:attribute</text><path d="M1100 5740 C1120 5740 1100 5740 1120 5740" style="fill:transparent;stroke:black" /><text x="1130" y="5740" font-size="8" style="fill:black">name: posicion</text><text x="1130" y="5750" font-size="8" style="fill:black">type: xs:positiveInteger</text><text x="1130" y="5760" font-size="8" style="fill:black">use: required</text></svg>